<svg width="24" height="24" viewBox="0 0 24 24" fill="none" xmlns="http://www.w3.org/2000/svg">
<path fill-rule="evenodd" clip-rule="evenodd" d="M12 15.9999C14.2091 15.9999 16 14.2091 16 11.9999C16 9.7908 14.2091 7.99994 12 7.99994C9.79085 7.99994 7.99998 9.7908 7.99998 11.9999C7.99998 14.2091 9.79085 15.9999 12 15.9999Z" stroke="#7B8794" stroke-width="1.22693" stroke-linecap="round" stroke-linejoin="round"/>
<path d="M16 11.9999V12.9999C16 14.6568 17.3431 15.9999 19 15.9999C20.6569 15.9999 22 14.6568 22 12.9999V11.9999C21.9997 7.35283 18.7981 3.31834 14.2726 2.26222C9.74714 1.2061 5.09048 3.40672 3.03325 7.57365C0.976027 11.7406 2.06045 16.7756 5.65063 19.7262C9.2408 22.6768 14.3905 22.7654 18.08 19.9399" stroke="#7B8794" stroke-width="1.22693" stroke-linecap="round" stroke-linejoin="round"/>
</svg>
