<svg width="24" height="24" viewBox="0 0 24 24" fill="none" xmlns="http://www.w3.org/2000/svg">
<path d="M17.8536 8.37022e-09C18.8255 -6.52161e-05 19.7605 0.381065 20.4669 1.06521C21.1734 1.74935 21.5976 2.68463 21.6526 3.6792L21.6585 3.9V10.8264C21.1112 10.4667 20.5209 10.1808 19.9024 9.9756V3.9C19.9024 3.37297 19.709 2.86522 19.3607 2.47753C19.0124 2.08984 18.5346 1.85057 18.0222 1.8072L17.8536 1.8H4.3902C3.68776 1.8 3.06727 2.1624 2.69849 2.7156C2.13143 2.40469 1.47249 2.31882 0.847565 2.4744C1.11401 1.78005 1.56902 1.17852 2.15871 0.741047C2.74839 0.303574 3.44803 0.0484884 4.17478 0.00600015L4.3902 8.37022e-09H17.8536Z" fill="#7B8794"/>
<path d="M11.2556 19.4182C11.4765 20.1173 11.7818 20.7757 12.1611 21.3818H4.78932C3.7291 21.3819 2.70905 20.9661 1.9384 20.2198C1.16776 19.4735 0.70496 18.4531 0.644936 17.3682L0.63855 17.1273V6.15973C1.25828 6.38465 1.93456 6.38465 2.55429 6.15973V17.1273C2.55434 17.7024 2.76544 18.2565 3.14568 18.6795C3.52591 19.1025 4.04745 19.3633 4.60669 19.4103L4.78932 19.4182H11.2556Z" fill="#7B8794"/>
<path d="M10.8058 13.8036C11.1406 13.1453 11.5652 12.5392 12.0667 12.0036H7.31352L7.19644 12.012C6.97625 12.043 6.77573 12.1585 6.63535 12.3352C6.49497 12.5118 6.42516 12.7364 6.44001 12.9638C6.45487 13.1911 6.55328 13.4042 6.71539 13.56C6.8775 13.7159 7.09125 13.8029 7.31352 13.8036H10.807H10.8058Z" fill="#7B8794"/>
<path d="M14.9291 7.79523C15.1516 7.7953 15.3657 7.88192 15.5283 8.03759C15.6908 8.19327 15.7897 8.40639 15.8048 8.63388C15.82 8.86138 15.7504 9.0863 15.61 9.26318C15.4696 9.44007 15.2689 9.55574 15.0485 9.58683L14.9291 9.59523H7.31467C7.0922 9.59516 6.87806 9.50853 6.7155 9.35286C6.55294 9.19718 6.4541 8.98407 6.43893 8.75657C6.42377 8.52907 6.49342 8.30416 6.63381 8.12727C6.7742 7.95038 6.97487 7.83471 7.19526 7.80363L7.31467 7.79523H14.9291Z" fill="#7B8794"/>
<path d="M1.46341 3.59998C1.85153 3.59998 2.22376 3.75801 2.4982 4.03932C2.77265 4.32062 2.92683 4.70215 2.92683 5.09997C2.92683 5.4978 2.77265 5.87933 2.4982 6.16063C2.22376 6.44194 1.85153 6.59997 1.46341 6.59997C1.07529 6.59997 0.703067 6.44194 0.428624 6.16063C0.154181 5.87933 0 5.4978 0 5.09997C0 4.70215 0.154181 4.32062 0.428624 4.03932C0.703067 3.75801 1.07529 3.59998 1.46341 3.59998Z" fill="#7B8794"/>
<path d="M24 17.4C24 15.6496 23.3216 13.9708 22.114 12.7331C20.9065 11.4953 19.2687 10.8 17.5609 10.8C15.8532 10.8 14.2154 11.4953 13.0079 12.7331C11.8003 13.9708 11.1219 15.6496 11.1219 17.4C11.1219 19.1504 11.8003 20.8292 13.0079 22.0669C14.2154 23.3046 15.8532 24 17.5609 24C19.2687 24 20.9065 23.3046 22.114 22.0669C23.3216 20.8292 24 19.1504 24 17.4ZM18.1463 18L18.1475 21.0036C18.1475 21.1627 18.0858 21.3153 17.976 21.4278C17.8662 21.5404 17.7174 21.6036 17.5621 21.6036C17.4069 21.6036 17.258 21.5404 17.1482 21.4278C17.0384 21.3153 16.9767 21.1627 16.9767 21.0036V18H14.0441C13.8888 18 13.7399 17.9368 13.6301 17.8243C13.5204 17.7117 13.4587 17.5591 13.4587 17.4C13.4587 17.2409 13.5204 17.0882 13.6301 16.9757C13.7399 16.8632 13.8888 16.8 14.0441 16.8H16.9756V13.8C16.9756 13.6409 17.0372 13.4882 17.147 13.3757C17.2568 13.2632 17.4057 13.2 17.5609 13.2C17.7162 13.2 17.8651 13.2632 17.9749 13.3757C18.0846 13.4882 18.1463 13.6409 18.1463 13.8V16.8H21.0696C21.2249 16.8 21.3738 16.8632 21.4835 16.9757C21.5933 17.0882 21.655 17.2409 21.655 17.4C21.655 17.5591 21.5933 17.7117 21.4835 17.8243C21.3738 17.9368 21.2249 18 21.0696 18H18.1463Z" fill="#7B8794"/>
</svg>
